M48
; DRILL file {KiCad 7.0.11-7.0.11~ubuntu22.04.1} date 12.09.2025 (пт) 14:08:15
; FORMAT={-:-/ absolute / metric / decimal}
; #@! TF.CreationDate,2025-09-12T14:08:15+03:00
; #@! TF.GenerationSoftware,Kicad,Pcbnew,7.0.11-7.0.11~ubuntu22.04.1
; #@! TF.FileFunction,Plated,1,2,PTH
FMAT,2
METRIC
; #@! TA.AperFunction,Plated,PTH,ViaDrill
T1C0.400
; #@! TA.AperFunction,Plated,PTH,ComponentDrill
T2C0.400
; #@! TA.AperFunction,Plated,PTH,ComponentDrill
T3C0.800
; #@! TA.AperFunction,Plated,PTH,ComponentDrill
T4C0.900
; #@! TA.AperFunction,Plated,PTH,ComponentDrill
T5C1.000
; #@! TA.AperFunction,Plated,PTH,ComponentDrill
T6C1.200
%
G90
G05
T1
X2.54Y20.32
X2.921Y52.578
X3.048Y16.383
X4.218Y16.41
X4.699Y5.842
X4.699Y5.08
X4.842Y29.455
X4.921Y11.61
X5.08Y52.578
X5.098Y42.103
X5.118Y41.003
X5.156Y39.065
X5.196Y44.49
X5.207Y50.927
X5.334Y34.29
X5.334Y33.147
X5.461Y47.737
X5.461Y48.895
X5.481Y46.502
X5.588Y43.053
X5.617Y22.587
X5.619Y40.045
X5.849Y25.707
X6.089Y12.624
X6.096Y52.578
X6.136Y23.596
X6.477Y1.016
X6.96Y37.287
X6.977Y12.632
X6.985Y1.905
X7.112Y52.578
X7.62Y1.016
X7.747Y44.703
X7.747Y5.842
X7.747Y5.08
X8.128Y52.578
X8.128Y50.927
X8.219Y17.723
X8.255Y41.783
X8.255Y1.905
X8.744Y49.896
X8.89Y15.494
X8.89Y1.016
X8.992Y22.098
X8.992Y21.336
X9.002Y27.94
X9.01Y19.05
X9.144Y52.578
X9.252Y13.824
X9.253Y48.941
X9.525Y8.636
X10.001Y15.289
X10.148Y38.654
X10.16Y52.578
X10.16Y34.925
X10.414Y8.636
X10.621Y12.301
X11.176Y52.578
X11.557Y37.728
X11.557Y35.678
X11.811Y1.016
X13.063Y4.553
X13.063Y3.503
X13.075Y33.297
X13.57Y29.591
X13.589Y17.385
X13.589Y1.016
X14.129Y33.272
X14.513Y8.629
X14.858Y38.091
X14.986Y15.748
X15.183Y33.273
X15.367Y52.578
X15.367Y8.629
X16.233Y33.285
X16.383Y52.578
X16.403Y30.181
X16.51Y1.016
X16.764Y38.735
X16.772Y48.525
X17.145Y1.905
X17.305Y33.259
X17.399Y52.578
X17.526Y5.882
X17.526Y5.08
X17.735Y23.272
X17.78Y1.016
X17.828Y48.525
X18.288Y8.492
X18.298Y13.243
X18.374Y33.136
X18.415Y52.578
X18.415Y1.905
X18.615Y47.333
X18.821Y32.131
X18.91Y35.71
X18.923Y36.76
X18.923Y1.016
X19.323Y46.392
X19.418Y29.972
X19.431Y52.578
X19.431Y44.704
X19.801Y22.841
X20.05Y40.513
X20.193Y47.03
X20.193Y8.509
X20.295Y12.736
X20.345Y16.635
X20.447Y52.578
X20.574Y5.882
X20.574Y5.08
X20.892Y11.62
X21.336Y15.748
X21.482Y34.671
X21.482Y32.385
X22.058Y25.948
X22.087Y29.337
X22.352Y13.081
X22.42Y27.316
X22.733Y52.578
T2
X11.45Y44.37
X11.45Y42.67
X12.68Y45.6
X12.68Y44.8
X12.68Y42.25
X12.68Y41.45
X14.38Y45.6
X14.38Y44.8
X14.38Y42.25
X14.38Y41.45
X15.6Y44.37
X15.6Y42.67
T4
X4.841Y13.988
X6.871Y13.99
T5
X1.27Y52.025
X1.27Y49.485
X1.27Y46.945
X1.27Y44.405
X1.27Y41.865
X1.27Y39.325
X1.27Y36.785
X1.27Y34.245
X1.27Y31.705
X1.27Y29.165
X1.27Y26.625
X1.27Y24.085
X1.27Y21.545
X1.27Y19.005
X1.27Y16.465
X1.27Y13.925
X24.13Y52.025
X24.13Y49.485
X24.13Y46.945
X24.13Y44.405
X24.13Y41.865
X24.13Y39.325
X24.13Y36.785
X24.13Y34.245
X24.13Y31.705
X24.13Y29.165
X24.13Y26.625
X24.13Y24.085
X24.13Y21.545
X24.13Y19.005
X24.13Y16.465
X24.13Y13.925
T6
X13.53Y43.52
T3
G00X2.03Y6.655
M15
G01X2.03Y5.755
M16
G05
G00X2.03Y2.325
M15
G01X2.03Y1.725
M16
G05
G00X10.67Y6.655
M15
G01X10.67Y5.755
M16
G05
G00X10.67Y2.325
M15
G01X10.67Y1.725
M16
G05
G00X14.73Y6.655
M15
G01X14.73Y5.755
M16
G05
G00X14.73Y2.325
M15
G01X14.73Y1.725
M16
G05
G00X23.37Y6.655
M15
G01X23.37Y5.755
M16
G05
G00X23.37Y2.325
M15
G01X23.37Y1.725
M16
G05
M30
