%TF.GenerationSoftware,KiCad,Pcbnew,7.0.11-7.0.11~ubuntu22.04.1*%
%TF.CreationDate,2025-09-12T14:08:08+03:00*%
%TF.ProjectId,ESP32-C5-DevKit-Lipo_Rev_A,45535033-322d-4433-952d-4465764b6974,A*%
%TF.SameCoordinates,PX59a0560PY989b620*%
%TF.FileFunction,Soldermask,Top*%
%TF.FilePolarity,Negative*%
%FSLAX46Y46*%
G04 Gerber Fmt 4.6, Leading zero omitted, Abs format (unit mm)*
G04 Created by KiCad (PCBNEW 7.0.11-7.0.11~ubuntu22.04.1) date 2025-09-12 14:08:08*
%MOMM*%
%LPD*%
G01*
G04 APERTURE LIST*
G04 Aperture macros list*
%AMRoundRect*
0 Rectangle with rounded corners*
0 $1 Rounding radius*
0 $2 $3 $4 $5 $6 $7 $8 $9 X,Y pos of 4 corners*
0 Add a 4 corners polygon primitive as box body*
4,1,4,$2,$3,$4,$5,$6,$7,$8,$9,$2,$3,0*
0 Add four circle primitives for the rounded corners*
1,1,$1+$1,$2,$3*
1,1,$1+$1,$4,$5*
1,1,$1+$1,$6,$7*
1,1,$1+$1,$8,$9*
0 Add four rect primitives between the rounded corners*
20,1,$1+$1,$2,$3,$4,$5,0*
20,1,$1+$1,$4,$5,$6,$7,0*
20,1,$1+$1,$6,$7,$8,$9,0*
20,1,$1+$1,$8,$9,$2,$3,0*%
G04 Aperture macros list end*
%ADD10RoundRect,0.050800X0.325000X-0.525000X0.325000X0.525000X-0.325000X0.525000X-0.325000X-0.525000X0*%
%ADD11RoundRect,0.050800X0.400000X0.400000X-0.400000X0.400000X-0.400000X-0.400000X0.400000X-0.400000X0*%
%ADD12C,2.201600*%
%ADD13RoundRect,0.050800X-0.400000X-0.400000X0.400000X-0.400000X0.400000X0.400000X-0.400000X0.400000X0*%
%ADD14RoundRect,0.050800X0.700000X0.700000X-0.700000X0.700000X-0.700000X-0.700000X0.700000X-0.700000X0*%
%ADD15C,1.501600*%
%ADD16RoundRect,0.050800X-0.275000X0.250000X-0.275000X-0.250000X0.275000X-0.250000X0.275000X0.250000X0*%
%ADD17RoundRect,0.050800X0.275000X-0.250000X0.275000X0.250000X-0.275000X0.250000X-0.275000X-0.250000X0*%
%ADD18RoundRect,0.050800X0.250000X0.275000X-0.250000X0.275000X-0.250000X-0.275000X0.250000X-0.275000X0*%
%ADD19RoundRect,0.050800X-0.250000X-0.275000X0.250000X-0.275000X0.250000X0.275000X-0.250000X0.275000X0*%
%ADD20C,3.000000*%
%ADD21RoundRect,0.050800X-0.750000X-0.450000X0.750000X-0.450000X0.750000X0.450000X-0.750000X0.450000X0*%
%ADD22C,1.901600*%
%ADD23RoundRect,0.050800X-2.500000X-2.500000X2.500000X-2.500000X2.500000X2.500000X-2.500000X2.500000X0*%
%ADD24C,1.301600*%
%ADD25RoundRect,0.050800X0.500000X-2.125000X0.500000X2.125000X-0.500000X2.125000X-0.500000X-2.125000X0*%
%ADD26C,0.701600*%
%ADD27RoundRect,0.050800X-0.550000X-1.100000X0.550000X-1.100000X0.550000X1.100000X-0.550000X1.100000X0*%
%ADD28O,1.301600X2.301600*%
%ADD29RoundRect,0.050800X-0.550000X-1.000000X0.550000X-1.000000X0.550000X1.000000X-0.550000X1.000000X0*%
%ADD30O,1.401600X2.101600*%
%ADD31RoundRect,0.050800X-0.150000X-0.575000X0.150000X-0.575000X0.150000X0.575000X-0.150000X0.575000X0*%
%ADD32RoundRect,0.050800X-0.125000X-0.575000X0.125000X-0.575000X0.125000X0.575000X-0.125000X0.575000X0*%
%ADD33RoundRect,0.050800X-0.889000X0.889000X-0.889000X-0.889000X0.889000X-0.889000X0.889000X0.889000X0*%
%ADD34C,1.879600*%
G04 APERTURE END LIST*
D10*
%TO.C,BOOT1*%
X19245000Y12530000D03*
X19245000Y16680000D03*
X21395000Y12530000D03*
X21395000Y16680000D03*
%TD*%
D11*
%TO.C,LED1*%
X19558000Y31115000D03*
X21082000Y31115000D03*
%TD*%
D12*
%TO.C,MH1*%
X22860000Y10160000D03*
%TD*%
D13*
%TO.C,CHARGE1*%
X5842000Y31115000D03*
X4318000Y31115000D03*
%TD*%
D14*
%TO.C,BAT1*%
X6870700Y13990320D03*
D15*
X4841240Y13987780D03*
%TD*%
D16*
%TO.C,R6*%
X17653000Y10033000D03*
D17*
X17653000Y11049000D03*
%TD*%
D18*
%TO.C,C13*%
X12192000Y11557000D03*
D19*
X13208000Y11557000D03*
%TD*%
D20*
%TO.C,FID3*%
X19939000Y27432000D03*
%TD*%
D17*
%TO.C,R2*%
X14097000Y11049000D03*
D16*
X14097000Y10033000D03*
%TD*%
D18*
%TO.C,C14*%
X19939000Y17780000D03*
D19*
X20955000Y17780000D03*
%TD*%
D21*
%TO.C,U3*%
X3950000Y52110000D03*
X3950000Y50840000D03*
X3950000Y49570000D03*
X3950000Y48300000D03*
X3950000Y47030000D03*
X3950000Y45760000D03*
X3950000Y44490000D03*
X3950000Y43220000D03*
X3950000Y41950000D03*
X3950000Y40680000D03*
X3950000Y39410000D03*
X3950000Y38140000D03*
X3950000Y36870000D03*
X3950000Y35600000D03*
X21450000Y35600000D03*
X21450000Y36870000D03*
X21450000Y38140000D03*
X21450000Y39410000D03*
X21450000Y40680000D03*
X21450000Y41950000D03*
X21450000Y43220000D03*
X21450000Y44490000D03*
X21450000Y45760000D03*
X21450000Y47030000D03*
X21450000Y48300000D03*
X21450000Y49570000D03*
X21450000Y50840000D03*
X21450000Y52110000D03*
D22*
X13530000Y43520000D03*
D23*
X13530000Y43520000D03*
%TD*%
D12*
%TO.C,MH2*%
X2540000Y10160000D03*
%TD*%
D24*
%TO.C,UEXT1*%
X8890000Y23622000D03*
X16510000Y23622000D03*
D25*
X7620000Y20497000D03*
X7620000Y26747000D03*
X10160000Y20497000D03*
X10160000Y26747000D03*
X12700000Y20497000D03*
X12700000Y26747000D03*
X15240000Y20497000D03*
X15240000Y26747000D03*
X17780000Y20497000D03*
X17780000Y26747000D03*
%TD*%
D19*
%TO.C,R27*%
X18288000Y31115000D03*
D18*
X17272000Y31115000D03*
%TD*%
D17*
%TO.C,R5*%
X5207000Y11049000D03*
D16*
X5207000Y10033000D03*
%TD*%
D17*
%TO.C,R1*%
X20320000Y11049001D03*
D16*
X20320000Y10033001D03*
%TD*%
%TO.C,TVS4*%
X6223000Y10033000D03*
D17*
X6223000Y11049000D03*
%TD*%
D16*
%TO.C,TVS2*%
X18542000Y10033001D03*
D17*
X18542000Y11049001D03*
%TD*%
D16*
%TO.C,TVS1*%
X15875000Y10033000D03*
D17*
X15875000Y11049000D03*
%TD*%
D19*
%TO.C,R8*%
X8128000Y31115000D03*
D18*
X7112000Y31115000D03*
%TD*%
D26*
%TO.C,USB-UART1*%
X9240000Y5705000D03*
X3460000Y5705000D03*
D27*
X11277600Y6205000D03*
D28*
X10670000Y6205000D03*
X2030000Y6205000D03*
D27*
X1422400Y6205000D03*
D29*
X11277600Y2025000D03*
D30*
X10670000Y2025000D03*
X2030000Y2025000D03*
D29*
X1422400Y2025000D03*
D31*
X3025000Y7107000D03*
X3825000Y7107000D03*
D32*
X5100000Y7107000D03*
X6100000Y7107000D03*
X6600000Y7107000D03*
X7600000Y7107000D03*
D31*
X8875000Y7107000D03*
X9675000Y7107000D03*
X9425000Y7107000D03*
X8625000Y7107000D03*
D32*
X8100000Y7107000D03*
X7100000Y7107000D03*
X5600000Y7107000D03*
X4600000Y7107000D03*
D31*
X4075000Y7107000D03*
X3275000Y7107000D03*
%TD*%
D16*
%TO.C,C6*%
X19431000Y10033000D03*
D17*
X19431000Y11049000D03*
%TD*%
D26*
%TO.C,USB-PGM1*%
X21940000Y5705000D03*
X16160000Y5705000D03*
D27*
X23977600Y6205000D03*
D28*
X23370000Y6205000D03*
X14730000Y6205000D03*
D27*
X14122400Y6205000D03*
D29*
X23977600Y2025000D03*
D30*
X23370000Y2025000D03*
X14730000Y2025000D03*
D29*
X14122400Y2025000D03*
D31*
X15725000Y7107000D03*
X16525000Y7107000D03*
D32*
X17800000Y7107000D03*
X18800000Y7107000D03*
X19300000Y7107000D03*
X20300000Y7107000D03*
D31*
X21575000Y7107000D03*
X22375000Y7107000D03*
X22125000Y7107000D03*
X21325000Y7107000D03*
D32*
X20800000Y7107000D03*
X19800000Y7107000D03*
X18300000Y7107000D03*
X17300000Y7107000D03*
D31*
X16775000Y7107000D03*
X15975000Y7107000D03*
%TD*%
D10*
%TO.C,RST1*%
X11625000Y12530000D03*
X11625000Y16680000D03*
X13775000Y12530000D03*
X13775000Y16680000D03*
%TD*%
D17*
%TO.C,R3*%
X8509000Y11049000D03*
D16*
X8509000Y10033000D03*
%TD*%
%TO.C,TVS3*%
X7493000Y10033000D03*
D17*
X7493000Y11049000D03*
%TD*%
%TO.C,R7*%
X16764000Y11049001D03*
D16*
X16764000Y10033001D03*
%TD*%
D20*
%TO.C,FID1*%
X4445000Y1905000D03*
%TD*%
D16*
%TO.C,C5*%
X14986000Y10033001D03*
D17*
X14986000Y11049001D03*
%TD*%
D20*
%TO.C,FID2*%
X13335000Y51435000D03*
%TD*%
D33*
%TO.C,EXT1*%
X1270000Y52025000D03*
D34*
X1270000Y49485000D03*
X1270000Y46945000D03*
X1270000Y44405000D03*
X1270000Y41865000D03*
X1270000Y39325000D03*
X1270000Y36785000D03*
X1270000Y34245000D03*
X1270000Y31705000D03*
X1270000Y29165000D03*
X1270000Y26625000D03*
X1270000Y24085000D03*
X1270000Y21545000D03*
X1270000Y19005000D03*
X1270000Y16465000D03*
X1270000Y13925000D03*
%TD*%
D33*
%TO.C,EXT2*%
X24130000Y52025000D03*
D34*
X24130000Y49485000D03*
X24130000Y46945000D03*
X24130000Y44405000D03*
X24130000Y41865000D03*
X24130000Y39325000D03*
X24130000Y36785000D03*
X24130000Y34245000D03*
X24130000Y31705000D03*
X24130000Y29165000D03*
X24130000Y26625000D03*
X24130000Y24085000D03*
X24130000Y21545000D03*
X24130000Y19005000D03*
X24130000Y16465000D03*
X24130000Y13925000D03*
%TD*%
M02*
